<?xml version="1.0" standalone="no"?>
<!DOCTYPE svg PUBLIC "-//W3C//DTD SVG 20010904//EN"
 "http://www.w3.org/TR/2001/REC-SVG-20010904/DTD/svg10.dtd">
<svg version="1.0" xmlns="http://www.w3.org/2000/svg"
 width="557.000000pt" height="557.000000pt" viewBox="0 0 557.000000 557.000000"
 preserveAspectRatio="xMidYMid meet">
<metadata>
Created by potrace 1.11, written by Peter Selinger 2001-2013
</metadata>
<g transform="translate(0.000000,557.000000) scale(0.100000,-0.100000)"
fill="#000000" stroke="none">
<path d="M2385 4940 c-78 -19 -160 -82 -195 -150 -63 -123 -36 -287 76 -456
89 -136 230 -254 406 -341 l71 -35 43 17 c50 19 207 112 248 146 62 53 136
130 174 181 183 248 165 518 -41 617 -109 52 -239 23 -368 -82 l-55 -45 -35
32 c-99 92 -229 138 -324 116z"/>
<path d="M1580 4098 c-63 -7 -161 -23 -255 -42 -65 -14 -236 -75 -331 -120
-275 -131 -528 -346 -687 -586 -20 -30 -42 -61 -48 -68 -24 -28 -120 -230
-153 -321 -76 -210 -101 -356 -101 -591 0 -191 9 -267 51 -433 29 -117 79
-249 136 -360 40 -78 142 -238 170 -268 7 -8 25 -30 40 -49 44 -58 148 -162
233 -232 257 -211 552 -338 895 -385 63 -8 342 -10 395 -2 33 5 76 12 95 14
210 31 465 132 663 262 l98 65 82 -55 c155 -102 277 -161 437 -212 197 -63
345 -84 560 -79 85 2 166 5 180 8 14 2 43 7 65 10 164 25 428 115 537 183 21
13 40 23 43 23 12 0 146 92 220 150 351 279 581 686 643 1135 10 70 8 400 -2
460 -4 28 -10 59 -11 70 -2 11 -6 31 -9 45 -3 14 -10 43 -15 65 -12 53 -49
173 -65 210 -8 17 -26 59 -42 95 -34 80 -121 226 -178 303 -82 109 -224 260
-301 318 -16 13 -32 26 -35 29 -15 16 -166 114 -235 152 -131 71 -300 137
-425 164 -19 4 -37 8 -40 9 -216 49 -483 52 -684 9 -39 -9 -82 -18 -96 -20
-132 -25 -375 -132 -528 -233 -51 -34 -97 -61 -102 -61 -5 0 -45 24 -90 54
-166 111 -431 226 -581 251 -51 8 -102 17 -124 21 -91 17 -295 23 -405 12z
m320 -482 c174 -22 352 -88 537 -201 2 -1 -27 -46 -63 -101 -140 -211 -231
-453 -269 -710 -14 -98 -14 -411 -1 -479 4 -16 14 -66 22 -110 39 -194 137
-427 252 -600 l60 -89 -33 -23 c-98 -67 -304 -149 -420 -168 -16 -3 -55 -10
-85 -15 -57 -9 -313 -6 -365 5 -155 33 -225 55 -333 105 -322 151 -576 449
-673 790 -38 133 -44 183 -44 355 0 184 14 270 71 425 167 455 589 777 1079
823 48 4 205 0 265 -7z m2090 1 c14 -3 53 -10 86 -16 123 -23 294 -90 404
-160 368 -232 594 -621 602 -1039 8 -365 -122 -679 -388 -939 -158 -154 -399
-286 -583 -320 -14 -2 -28 -6 -32 -9 -29 -18 -320 -26 -432 -12 -147 19 -334
86 -474 170 l-52 32 34 48 c32 44 145 234 145 243 0 2 14 33 30 68 56 121 106
298 125 437 3 25 8 57 11 73 10 50 6 300 -6 387 -37 271 -133 529 -275 739
-31 46 -54 89 -51 96 8 21 246 133 341 160 50 15 131 32 180 39 85 11 281 13
335 3z m-1182 -589 c168 -274 222 -596 156 -943 -7 -35 -56 -178 -81 -235 -26
-60 -95 -180 -103 -180 -9 0 -86 145 -119 224 -34 82 -65 190 -76 272 -4 27
-9 58 -11 69 -5 22 -4 238 0 270 14 103 22 140 41 205 12 41 35 104 49 140 30
74 106 210 117 210 4 0 16 -15 27 -32z"/>
</g>
</svg>
