<?xml version="1.0" encoding="UTF-8"?>
<svg width="37px" height="37px" viewBox="0 0 37 37" version="1.1" xmlns="http://www.w3.org/2000/svg" xmlns:xlink="http://www.w3.org/1999/xlink">
    <!-- Generator: Sketch 58 (84663) - https://sketch.com -->
    <title>time</title>
    <desc>Created with Sketch.</desc>
    <g id="Page-1" stroke="none" stroke-width="1" fill="none" fill-rule="evenodd">
        <g id="Desktop-HD" transform="translate(-635.000000, -1990.000000)" fill="#000000" fill-rule="nonzero">
            <g id="Wedding" transform="translate(202.000000, 1445.000000)">
                <g id="time" transform="translate(433.000000, 545.000000)">
                    <g>
                        <path d="M18.5,0 C8.2991,0 0,8.2991 0,18.5 C0,28.7009 8.2991,37 18.5,37 C28.7009,37 37,28.7009 37,18.5 C37,8.2991 28.7009,0 18.5,0 Z M18.5,35.7666667 C8.97928333,35.7666667 1.23333333,28.0207167 1.23333333,18.5 C1.23333333,8.97928333 8.97928333,1.23333333 18.5,1.23333333 C28.0207167,1.23333333 35.7666667,8.97928333 35.7666667,18.5 C35.7666667,28.0207167 28.0207167,35.7666667 18.5,35.7666667 Z" id="Shape"></path>
                        <path d="M18.3888889,4 C18.0515556,4 17.7777778,4.27507692 17.7777778,4.61538462 L17.7777778,18.7692308 L8.61111111,18.7692308 C8.27377778,18.7692308 8,19.0443077 8,19.3846154 C8,19.7249231 8.27377778,20 8.61111111,20 L18.3888889,20 C18.7262222,20 19,19.7249231 19,19.3846154 L19,4.61538462 C19,4.27507692 18.7262222,4 18.3888889,4 Z" id="Path"></path>
                    </g>
                </g>
            </g>
        </g>
    </g>
</svg>