<?xml version="1.0" encoding="UTF-8"?>
<svg width="241px" height="30px" viewBox="0 0 241 30" version="1.1" xmlns="http://www.w3.org/2000/svg" xmlns:xlink="http://www.w3.org/1999/xlink">
    <g stroke="none" stroke-width="1" fill="none" fill-rule="evenodd">
        <g transform="translate(0.000000, 2.000000)" fill="#7C6554">
            <path d="M84.967,20.7169907 C85.455,18.2709907 87.511,17.8539907 89.17,16.9789907 C88.351,18.8229907 87.193,20.2759907 84.967,20.7169907 Z M71.016,24.4389907 C72.799,20.9659907 75.16,18.5559907 79.395,17.9149907 C77.114,21.0569907 75.472,24.3829907 71.016,24.4389907 Z M62.418,24.0839907 C61.095,21.2339907 63.607,20.3779907 65.069,18.9149907 C65.313,20.9679907 64.204,23.0969907 62.418,24.0839907 Z M49.632,24.2009907 C53.053,20.0109907 56.417,16.4119907 62.209,17.2219907 C59.551,22.0429907 54.954,23.4269907 49.632,24.2009907 Z M34.403,25.0799907 C36.439,21.8689907 38.319,18.9329907 41.303,17.1859907 C42.58,16.4379907 44.483,16.7589907 46.101,16.5949907 C43.355,21.0889907 39.461,23.5819907 34.403,25.0799907 Z M36.343,2.71699074 C36.474,2.56099074 36.604,2.40499074 36.735,2.24799074 C38.074,3.13899074 39.511,3.91599074 40.726,4.95199074 C41.91,5.96299074 41.67,7.65499074 40.255,9.10399074 C38.934,6.94699074 37.638,4.83199074 36.343,2.71699074 Z M17.347,23.3759907 C18.586,19.9189907 23.828,16.7509907 28.785,17.3179907 C25.866,21.3239907 21.963,23.0059907 17.347,23.3759907 Z M3.226,13.2469907 C7.983,10.5199907 18.759,10.7229907 22.425,13.7199907 C15.865,16.9839907 9.534,15.9599907 3.226,13.2469907 Z M20.073,3.27499074 C26.077,3.22599074 32.812,5.34899074 36.044,8.91999074 C30.252,8.24199074 24.558,7.56899074 20.073,3.27499074 Z M51.131,7.59499074 C49.194,7.02999074 47.842,5.27799074 46.951,3.33499074 C51.61,1.74699074 57.282,5.55999074 62.094,9.90399074 C58.432,9.16299074 54.706,8.63799074 51.131,7.59499074 Z M65.899,5.44199074 C70.009,3.72899074 75.955,7.52999074 78.147,10.7279907 C73.332,10.4649907 69.038,9.41099074 65.899,5.44199074 Z M79.322,5.69099074 C80.941,6.72599074 82.308,7.74699074 82.3070005,9.95499074 C80.415,9.05699074 79.442,7.76399074 79.322,5.69099074 Z M87.967,7.16299074 C90.023,8.06499074 92.011,9.03499074 92.932,11.2629907 C90.678,10.6259907 88.694,9.66199074 87.967,7.16299074 Z M99.51,13.3419907 C97.192,13.9149907 94.874,12.7109907 94.216,11.2769907 C92.47,7.47299074 88.674,6.75899074 85.843,4.55999074 C86.468,6.87699074 87.353,9.17699074 89.237,10.5479907 C91.09,11.8969907 93.416,12.5969907 95.464,13.5479907 C93.613,13.8499907 91.77,14.3219907 89.907,14.4199907 C85.378,14.6569907 83.87,14.5239907 83.449,10.3499907 C83.083,6.71599074 80.547,5.30499074 78.057,3.21699074 C77.537,7.46599074 80.19,9.77999074 82.57,12.3039907 C81.126,11.6219907 79.911,10.7909907 78.861,9.78899074 C75.235,6.32599074 71.439,3.34499074 65.954,4.01399074 C65.097,4.11799074 64.195,3.85299074 63.314,3.75799074 C63.249,3.92499074 63.184,4.09199074 63.119,4.25899074 C65.048,5.93999074 66.744,8.09599074 68.963,9.17999074 C71.681,10.5069907 74.833,10.9519907 77.805,11.7479907 C79.868,12.2999907 81.876,12.9499907 83.634,14.1079907 C80.141,14.1079907 76.733,13.9049907 73.36,14.1679907 C70.254,14.4089907 67.898,13.0999907 65.653,11.3419907 C63.604,9.73799074 61.747,7.87199074 59.617,6.39499074 C57.443,4.88799074 55.176,3.19999074 52.697,2.53299074 C49.883,1.77599074 46.787,2.06399074 43.814,1.89699074 C43.741,2.08599074 43.669,2.27499074 43.597,2.46399074 C43.822,2.72799074 44.014,3.03399074 44.28,3.24899074 C45.459,4.19999074 46.64,5.15099074 47.858,6.05099074 C49.04,6.92499074 50.162,8.10399074 51.5,8.49399074 C54.088,9.24899074 56.796,9.65499074 59.481,9.99799074 C62.046,10.3259907 65.289,11.7979907 67.239,14.0419907 C58.148,13.3649907 49.299,13.7309907 40.096,11.8269907 C40.659,10.7699907 41.012,9.83699074 41.591,9.07599074 C42.689,7.63199074 43.031,6.27199074 41.78,5.02999074 C40.021,3.28399074 37.909,1.89499074 35.886,0.304990743 C34.804,2.13399074 35.553,3.26499074 36.228,4.40699074 C37.473,6.50999074 38.72,8.61299074 39.965,10.7169907 C39.826,10.8159907 39.686,10.9139907 39.547,11.0129907 C36.923,7.65799074 33.408,5.64999074 29.562,4.04699074 C26.703,2.85499074 18.644,1.56799074 17.739,2.37499074 C20.463,4.84999074 22.373,6.75999074 26.004,7.74199074 C28.395,8.38799074 30.82,8.96799074 33.267,9.32599074 C35.703,9.68099074 37.486,11.0709907 39.367,12.5029907 C35.374,12.7569907 31.381,12.3189907 27.54,12.8939907 C24.419,13.3609907 21.818,12.3169907 19.184,11.4329907 C13.594,9.55899074 8.284,10.4429907 2.962,12.2449907 C2.067,12.5489907 1.24,13.0509907 0,13.6439907 C2.914,14.3999907 5.444,14.9019907 7.869,15.7169907 C12.838,17.3879907 17.615,16.5709907 22.275,14.7369907 C26.054,13.2499907 29.888,13.2939907 34.08,13.5679907 C32.221,15.5579907 30.016,16.3849907 27.78,16.3769907 C22.043,16.3579907 18.585,19.7429907 15.366,23.8839907 C15.674,24.0589907 15.845,24.1949907 16.04,24.2579907 C16.245,24.3239907 16.493,24.3909907 16.687,24.3349907 C19.271,23.5859907 22.114,23.2659907 24.369,21.9449907 C27.857,19.9009907 30.895,17.0999907 34.228,14.7699907 C35.244,14.0599907 36.575,13.6059907 37.813,13.4569907 C39.629,13.2389907 41.495,13.3219907 43.332,13.4189907 C46.01,13.5609907 48.681,13.8289907 51.355,14.0439907 C51.376,14.1899907 51.396,14.3359907 51.417,14.4819907 C50.669,14.7819907 49.943,15.2439907 49.169,15.3489907 C47.418,15.5869907 45.63,15.8409907 43.881,15.7299907 C41.698,15.5919907 40.122,16.4359907 38.774,17.9919907 C38.118,18.7489907 37.397,19.4539907 36.795,20.2499907 C35.455,22.0199907 34.171,23.8319907 32.614,25.9709907 C33.431,25.9709907 33.798,26.0479907 34.119,25.9589907 C39.076,24.5899907 43.26,22.0529907 46.479,17.9569907 C47.041,17.2409907 48.028,16.8329907 48.867,16.3699907 C49.493,16.0259907 50.252,15.9119907 50.856,15.5399907 C52.498,14.5299907 54.186,13.9269907 56.173,14.0849907 C59.558,14.3539907 62.954,14.4809907 66.345,14.6669907 C66.365,14.8969907 66.385,15.1259907 66.405,15.3559907 C65.036,15.6149907 63.655,16.1439907 62.299,16.0879907 C55.466,15.8069907 51.576,20.1679907 47.745,24.9279907 C48.081,25.0869907 48.291,25.2819907 48.473,25.2589907 C52.923,24.6759907 57.18,23.6329907 60.532,20.3269907 C61.822,19.0539907 63.219,17.8899907 64.568,16.6769907 C64.7,16.8089907 64.832,16.9419907 64.964,17.0749907 C64.332,17.8719907 63.815,18.8089907 63.045,19.4379907 C61.114,21.0179907 60.58,23.2749907 61.743,25.7469907 C64.431,24.8019907 66.582,21.1809907 66.185,18.2709907 C65.949,16.5349907 67.333,14.8449907 69.128,14.8569907 C72.58,14.8799907 76.031,14.9949907 79.482,15.0819907 C79.993,15.0949907 80.502,15.1619907 81.012,15.2029907 C81.05,15.3629907 81.088,15.5229907 81.125,15.6819907 C80.166,16.1549907 79.254,16.8129907 78.24,17.0669907 C74.312,18.0509907 71.936,20.7509907 70.104,24.1109907 C69.639,24.9649907 69.756,25.5279907 70.893,25.4419907 C73.004,25.2819907 75.001,24.7449907 76.431,23.0889907 C77.766,21.5419907 78.986,19.8899907 80.18,18.2289907 C82.379,15.1689907 86.13,14.0469907 89.881,15.4609907 C87.02,17.1019907 83.618,18.2349907 83.943,22.6529907 C85.74,21.5319907 87.646,20.4469907 88.994,18.8819907 C91.293,16.2089907 93.559,13.9469907 97.47,14.0319907 C99.647,14.0799907 101.839,13.5089907 104.024,13.2179907 C103.998,13.0299907 103.972,12.8439907 103.946,12.6569907 C102.465,12.8769907 100.957,12.9849907 99.51,13.3419907 L99.51,13.3419907 Z" id="Fill-23"></path>
            <path d="M129.485,14.4839907 C129.517,10.5229907 130.808,6.38299074 126.266,4.02799074 C128.535,2.21799074 130.392,2.60399074 131.24,5.21299074 C132.02,7.61599074 132.61,10.0769907 131.75,12.6779907 C131.349,13.8909907 130.704,14.3869907 129.485,14.4839907 Z M130.327,20.4569907 C128.874,22.2859907 126.994,23.5689907 124.683,24.0249907 C122.599,24.4359907 121.153,22.7429907 121.771,20.6619907 C123.518,20.2559907 125.436,19.9579907 125.258,17.3939907 C125.243,17.1839907 125.722,16.8589907 126.032,16.7269907 C126.431,16.5579907 126.942,16.6249907 127.315,16.4229907 C128.331,15.8739907 129.285,15.6579907 130.021,16.7729907 C130.781,17.9249907 131.325,19.1999907 130.327,20.4569907 Z M117.415,18.9249907 C116.104,18.7129907 115.614,17.7669907 115.474,16.5679907 C115.367,15.6579907 115.275,14.7469907 115.378,13.5819907 C117.523,16.9019907 120.596,17.6419907 124.206,17.0359907 C124.489,18.8819907 123.637,19.6309907 122.287,19.5829907 C120.658,19.5249907 119.035,19.1859907 117.415,18.9249907 Z M120.128,22.0909907 C119.806,23.2239907 119.096,23.1359907 118.054,22.9489907 C115.348,22.4609907 113.374,21.0179907 111.94,18.7859907 C111.614,18.2799907 111.353,17.3349907 111.606,16.9519907 C111.93,16.4619907 112.788,16.2779907 113.451,16.0799907 C113.786,15.9809907 114.198,16.1429907 114.696,16.1999907 C114.536,19.0979907 116.408,19.9069907 118.77,20.1759907 C119.952,20.3109907 120.458,20.9279907 120.128,22.0909907 Z M109.609,11.3089907 C109.57,10.3139907 109.663,9.30099074 109.802,8.31199074 C110.225,5.28999074 111.12,4.75999074 114.441,5.53699074 C113.29,7.94499074 112.801,10.3189907 114.453,12.7639907 C114.772,13.2349907 114.439,14.1469907 114.407,14.8399907 C111.057,15.5599907 109.738,14.5989907 109.609,11.3089907 Z M118.909,1.04499074 C120.283,0.906990743 121.719,0.834990743 123.056,1.09699074 C123.805,1.24299074 124.834,2.03799074 124.981,2.70699074 C125.209,3.73999074 124.208,4.04199074 123.204,4.07199074 C122.689,4.08799074 122.192,4.45099074 121.672,4.60899074 C121.173,4.75999074 120.537,5.10099074 120.167,4.92499074 C118.528,4.14799074 116.968,4.20999074 115.3,5.14799074 C114.906,2.89199074 116.333,1.30299074 118.909,1.04499074 Z M125.107,10.7649907 C124.882,12.3829907 124.742,13.8059907 124.45,15.1979907 C124.374,15.5569907 123.827,16.0479907 123.481,16.0599907 C123.052,16.0749907 122.439,15.7679907 122.197,15.4049907 C120.99,13.5969907 122.325,11.2169907 125.107,10.7649907 Z M114.858,11.4129907 C114.022,8.93199074 114.43,6.74099074 115.761,5.86299074 C117.231,4.89299074 118.879,5.10199074 120.334,6.42999074 C118.532,8.06999074 116.732,9.70799074 114.858,11.4129907 Z M117.935,9.80099074 C118.254,9.78299074 118.685,10.1469907 118.918,10.4489907 C120.138,12.0279907 119.382,13.6949907 119.144,15.3359907 C118.995,15.4299907 118.844,15.5239907 118.695,15.6179907 C117.91,14.6549907 117.037,13.7469907 116.37,12.7079907 C115.886,11.9529907 117.05,9.85199074 117.935,9.80099074 Z M121.158,11.6449907 C121.013,13.1589907 120.875,14.5999907 120.742,15.9919907 C119.96,15.3459907 120.186,12.5899907 121.158,11.6449907 Z M119.336,9.41499074 C119.202,9.23799074 119.053,9.07299074 118.768,8.73099074 C119.482,8.25199074 120.067,7.84499074 120.666,7.45999074 C122.097,6.53799074 124.052,7.27899074 124.45,8.93599074 C124.52,9.22899074 124.346,9.71999074 124.114,9.92199074 C122.766,11.0929907 120.399,10.8139907 119.336,9.41499074 Z M128.867,9.38699074 C128.954,10.4389907 129.013,11.5339907 128.82,12.5589907 C128.374,14.9179907 128.833,15.6749907 125.275,15.3839907 C126.256,11.5699907 126.564,7.92099074 122.062,5.62399074 C126.154,3.70899074 128.584,6.01299074 128.867,9.38699074 Z M132.881,11.0809907 C132.767,9.04799074 132.608,6.99099074 132.175,5.00899074 C131.626,2.49299074 129.739,1.53399074 127.24,2.21299074 C126.875,2.31199074 126.514,2.42199074 126.08,2.54699074 C125.697,0.835990743 124.557,0.100990743 122.969,0.0589907429 C119.179,-0.0420092571 115.198,-0.504009257 113.773,4.33199074 C110.602,4.02699074 109.663,4.66299074 109.047,7.64599074 C108.779,8.94099074 108.558,10.2869907 108.615,11.5969907 C108.693,13.3609907 108.907,15.1969907 111.125,15.9039907 C109.697,17.5339907 110.366,18.8249907 111.577,20.0339907 C112.321,20.7789907 113.017,21.5789907 113.82,22.2549907 C115.785,23.9099907 119.141,24.3779907 120.884,23.2259907 C122.149,25.1769907 124.008,25.4129907 125.944,24.5339907 C127.436,23.8569907 128.842,22.9239907 130.151,21.9269907 C131.865,20.6209907 132.114,19.3029907 131.293,17.2489907 C131.09,16.7409907 130.814,16.2619907 130.508,15.6409907 C132.136,14.5019907 132.987,12.9739907 132.881,11.0809907 L132.881,11.0809907 Z" id="Fill-24"></path>
            <path d="M217.815,13.7199907 C221.481,10.7229907 232.258,10.5199907 237.014,13.2469907 C230.706,15.9599907 224.375,16.9839907 217.815,13.7199907 Z M222.893,23.3759907 C218.277,23.0059907 214.375,21.3239907 211.455,17.3179907 C216.412,16.7509907 221.654,19.9189907 222.893,23.3759907 Z M199.986,9.10399074 C198.57,7.65499074 198.33,5.96299074 199.514,4.95199074 C200.729,3.91599074 202.166,3.13899074 203.505,2.24799074 C203.636,2.40499074 203.766,2.56099074 203.897,2.71699074 C202.602,4.83199074 201.307,6.94699074 199.986,9.10399074 Z M198.937,17.1859907 C201.921,18.9329907 203.801,21.8689907 205.837,25.0799907 C200.779,23.5819907 196.885,21.0889907 194.139,16.5949907 C195.757,16.7589907 197.66,16.4379907 198.937,17.1859907 Z M175.172,18.9149907 C176.633,20.3779907 179.145,21.2339907 177.822,24.0839907 C176.036,23.0969907 174.927,20.9679907 175.172,18.9149907 Z M190.608,24.2009907 C185.286,23.4269907 180.689,22.0429907 178.031,17.2219907 C183.823,16.4119907 187.187,20.0109907 190.608,24.2009907 Z M169.224,24.4389907 C164.768,24.3829907 163.126,21.0569907 160.846,17.9149907 C165.081,18.5559907 167.441,20.9659907 169.224,24.4389907 Z M155.273,20.7169907 C153.047,20.2759907 151.889,18.8229907 151.07,16.9789907 C152.729,17.8539907 154.785,18.2709907 155.273,20.7169907 Z M152.273,7.16299074 C151.547,9.66199074 149.562,10.6259907 147.308,11.2629907 C148.229,9.03499074 150.217,8.06499074 152.273,7.16299074 Z M160.918,5.69099074 C160.798,7.76399074 159.825,9.05699074 157.933,9.95499074 C157.933,7.74699074 159.299,6.72599074 160.918,5.69099074 Z M174.341,5.44199074 C171.203,9.41099074 166.908,10.4649907 162.093,10.7279907 C164.285,7.52999074 170.231,3.72899074 174.341,5.44199074 Z M193.289,3.33499074 C192.398,5.27799074 191.046,7.02999074 189.109,7.59499074 C185.534,8.63799074 181.808,9.16299074 178.146,9.90399074 C182.959,5.55999074 188.63,1.74699074 193.289,3.33499074 Z M220.167,3.27499074 C215.682,7.56899074 209.988,8.24199074 204.196,8.91999074 C207.428,5.34899074 214.164,3.22599074 220.167,3.27499074 Z M237.278,12.2449907 C231.956,10.4429907 226.646,9.55899074 221.057,11.4329907 C218.422,12.3169907 215.821,13.3609907 212.7,12.8939907 C208.859,12.3189907 204.866,12.7569907 200.874,12.5029907 C202.754,11.0709907 204.537,9.68099074 206.974,9.32599074 C209.42,8.96799074 211.845,8.38799074 214.236,7.74199074 C217.867,6.75999074 219.777,4.84999074 222.501,2.37499074 C221.596,1.56799074 213.537,2.85499074 210.678,4.04699074 C206.833,5.64999074 203.317,7.65799074 200.693,11.0129907 C200.554,10.9139907 200.414,10.8159907 200.275,10.7169907 C201.521,8.61299074 202.767,6.50999074 204.012,4.40699074 C204.687,3.26499074 205.436,2.13399074 204.354,0.304990743 C202.331,1.89499074 200.219,3.28399074 198.461,5.02999074 C197.209,6.27199074 197.551,7.63199074 198.649,9.07599074 C199.228,9.83699074 199.581,10.7699907 200.144,11.8269907 C190.941,13.7309907 182.092,13.3649907 173.001,14.0419907 C174.951,11.7979907 178.194,10.3259907 180.759,9.99799074 C183.444,9.65499074 186.152,9.24899074 188.74,8.49399074 C190.078,8.10399074 191.2,6.92499074 192.382,6.05099074 C193.6,5.15099074 194.781,4.19999074 195.96,3.24899074 C196.226,3.03399074 196.418,2.72799074 196.644,2.46399074 C196.571,2.27499074 196.499,2.08599074 196.426,1.89699074 C193.453,2.06399074 190.358,1.77599074 187.543,2.53299074 C185.064,3.19999074 182.798,4.88799074 180.623,6.39499074 C178.493,7.87199074 176.636,9.73799074 174.588,11.3419907 C172.342,13.0999907 169.986,14.4089907 166.88,14.1679907 C163.507,13.9049907 160.099,14.1079907 156.606,14.1079907 C158.364,12.9499907 160.372,12.2999907 162.435,11.7479907 C165.407,10.9519907 168.559,10.5069907 171.277,9.17999074 C173.496,8.09599074 175.193,5.93999074 177.121,4.25899074 C177.056,4.09199074 176.991,3.92499074 176.926,3.75799074 C176.045,3.85299074 175.143,4.11799074 174.286,4.01399074 C168.801,3.34499074 165.006,6.32599074 161.379,9.78899074 C160.329,10.7909907 159.115,11.6219907 157.67,12.3039907 C160.051,9.77999074 162.704,7.46599074 162.183,3.21699074 C159.693,5.30499074 157.157,6.71599074 156.791,10.3499907 C156.37,14.5239907 154.862,14.6569907 150.333,14.4199907 C148.47,14.3219907 146.627,13.8499907 144.776,13.5479907 C146.824,12.5969907 149.15,11.8969907 151.003,10.5479907 C152.887,9.17699074 153.772,6.87699074 154.397,4.55999074 C151.566,6.75899074 147.77,7.47299074 146.025,11.2769907 C145.366,12.7109907 143.048,13.9149907 140.73,13.3419907 C139.284,12.9849907 137.775,12.8769907 136.294,12.6569907 C136.268,12.8439907 136.242,13.0299907 136.216,13.2179907 C138.401,13.5089907 140.593,14.0799907 142.77,14.0319907 C146.681,13.9469907 148.947,16.2089907 151.246,18.8819907 C152.594,20.4469907 154.5,21.5319907 156.297,22.6529907 C156.622,18.2349907 153.22,17.1019907 150.359,15.4609907 C154.11,14.0469907 157.861,15.1689907 160.06,18.2289907 C161.254,19.8899907 162.474,21.5419907 163.809,23.0889907 C165.239,24.7449907 167.236,25.2819907 169.347,25.4419907 C170.484,25.5279907 170.601,24.9649907 170.136,24.1109907 C168.304,20.7509907 165.928,18.0509907 162,17.0669907 C160.986,16.8129907 160.074,16.1549907 159.115,15.6819907 C159.152,15.5229907 159.19,15.3629907 159.228,15.2029907 C159.738,15.1619907 160.247,15.0949907 160.759,15.0819907 C164.209,14.9949907 167.661,14.8799907 171.112,14.8569907 C172.907,14.8449907 174.291,16.5349907 174.055,18.2709907 C173.658,21.1809907 175.809,24.8019907 178.497,25.7469907 C179.66,23.2749907 179.126,21.0179907 177.195,19.4379907 C176.426,18.8089907 175.908,17.8719907 175.276,17.0749907 C175.408,16.9419907 175.54,16.8089907 175.672,16.6769907 C177.021,17.8899907 178.418,19.0539907 179.708,20.3269907 C183.06,23.6329907 187.317,24.6759907 191.767,25.2589907 C191.949,25.2819907 192.159,25.0869907 192.495,24.9279907 C188.664,20.1679907 184.774,15.8069907 177.942,16.0879907 C176.585,16.1439907 175.204,15.6149907 173.835,15.3559907 C173.855,15.1259907 173.875,14.8969907 173.895,14.6669907 C177.286,14.4809907 180.682,14.3539907 184.067,14.0849907 C186.054,13.9269907 187.742,14.5299907 189.384,15.5399907 C189.988,15.9119907 190.747,16.0259907 191.373,16.3699907 C192.212,16.8329907 193.199,17.2409907 193.761,17.9569907 C196.98,22.0529907 201.164,24.5899907 206.121,25.9589907 C206.442,26.0479907 206.809,25.9709907 207.626,25.9709907 C206.069,23.8319907 204.785,22.0199907 203.445,20.2499907 C202.843,19.4539907 202.122,18.7489907 201.466,17.9919907 C200.118,16.4359907 198.542,15.5919907 196.359,15.7299907 C194.61,15.8409907 192.822,15.5869907 191.071,15.3489907 C190.297,15.2439907 189.571,14.7819907 188.823,14.4819907 C188.844,14.3359907 188.864,14.1899907 188.885,14.0439907 C191.559,13.8289907 194.23,13.5609907 196.908,13.4189907 C198.745,13.3219907 200.611,13.2389907 202.427,13.4569907 C203.665,13.6059907 204.996,14.0599907 206.012,14.7699907 C209.345,17.0999907 212.383,19.9009907 215.871,21.9449907 C218.126,23.2659907 220.969,23.5859907 223.553,24.3349907 C223.747,24.3909907 223.995,24.3239907 224.2,24.2579907 C224.395,24.1949907 224.566,24.0589907 224.874,23.8839907 C221.655,19.7429907 218.197,16.3579907 212.46,16.3769907 C210.224,16.3849907 208.019,15.5579907 206.16,13.5679907 C210.352,13.2939907 214.186,13.2499907 217.965,14.7369907 C222.625,16.5709907 227.402,17.3879907 232.371,15.7169907 C234.796,14.9019907 237.326,14.3999907 240.24,13.6439907 C239,13.0509907 238.173,12.5489907 237.278,12.2449907 L237.278,12.2449907 Z" id="Fill-25"></path>
        </g>
    </g>
</svg>